# xmcd
# 
# Track frame offsets:
#     150
#     22038
#     42461
#     66225
# 
# Disc length: 1174
# 
# Revision: 2
# Processed by: cddbd v1.5.2PL0 Copyright (c) Steve Scherf et al.
# Submitted via: fre:ac v1.0.31
# 
DISCID=34049404
DTITLE=Various Artist - ひかりふる
DYEAR=0
DGENRE=Anime
TTITLE0=Kalafina - ひかりふる
TTITLE1=Kalafina - 未来
TTITLE2=Kalafina - Magia[quattro]
TTITLE3=Kalafina - ひかりふる ～instrumental～
EXTD=YEAR: 0
EXTT0=
EXTT1=
EXTT2=
EXTT3=
PLAYORDER=
